<?xml version="1.0" encoding="UTF-8"?>
<svg id="Layer_1" data-name="Layer 1" xmlns="http://www.w3.org/2000/svg" version="1.1" viewBox="0 0 1028 1028">
    <defs>
        <style>
            .cls-1 {
            fill: #219ecf;
            }

            .cls-1, .cls-2, .cls-3, .cls-4 {
            stroke-width: 0px;
            }

            .cls-2 {
            fill: #f5f5f5;
            }

            .cls-3 {
            fill: #3c3c3c;
            }

            .cls-4 {
            fill: #f5f5f5;
            }
        </style>
    </defs>
    <rect class="cls-2" x="1" y="1" width="1024" height="1024"/>
    <rect class="cls-4" x="1" y="1" width="1024" height="1024"/>
    <g>
        <path class="cls-1" d="M390.1,270h0c134.3,0,243.1,108.8,243.1,243.1h0c0,134.3-108.8,243.1-243.1,243.1h0c-134.3,0-243.1-108.8-243.1-243.1h0c0-134.3,108.8-243.1,243.1-243.1Z"/>
        <path class="cls-3" d="M635.2,756.2c-65,0-126-25.3-171.9-71.2-45.9-45.9-71.2-107-71.2-171.9s25.3-126,71.2-171.9c45.9-45.9,107-71.2,171.9-71.2h0c64.9,0,126,25.3,171.9,71.2,45.9,45.9,71.2,107,71.2,171.9s-25.3,126-71.2,171.9c-45.9,45.9-107,71.2-171.9,71.2ZM635.1,303.5c-115.6,0-209.6,94-209.6,209.6s94,209.6,209.6,209.6,209.6-94,209.6-209.6-94-209.6-209.6-209.6h0Z"/>
    </g>
</svg>