<?xml version="1.0" encoding="UTF-8"?>
<svg id="Layer_1" data-name="Layer 1" xmlns="http://www.w3.org/2000/svg" version="1.1" viewBox="0 0 1024 1024">
    <defs>
        <style>
            .cls-1 {
            fill: #fff;
            }

            .cls-1, .cls-2 {
            stroke-width: 0px;
            }

            .cls-2 {
            fill: #56b9da;
            }
        </style>
    </defs>
    <path class="cls-2" d="M389.1,268h0c134.3,0,243.1,108.8,243.1,243.1h0c0,134.3-108.8,243.1-243.1,243.1h0c-134.3,0-243.1-108.8-243.1-243.1h0c0-134.3,108.8-243.1,243.1-243.1Z"/>
    <path class="cls-1" d="M634.2,754.2c-65,0-126-25.3-171.9-71.2-45.9-45.9-71.2-107-71.2-171.9s25.3-126,71.2-171.9c45.9-45.9,107-71.2,171.9-71.2h0c64.9,0,126,25.3,171.9,71.2,45.9,45.9,71.2,107,71.2,171.9s-25.3,126-71.2,171.9c-45.9,45.9-107,71.2-171.9,71.2ZM634.1,301.5c-115.6,0-209.6,94-209.6,209.6s94,209.6,209.6,209.6,209.6-94,209.6-209.6-94-209.6-209.6-209.6h0Z"/>
</svg>